<svg xmlns="http://www.w3.org/2000/svg" width="1392" height="807" viewBox="0 0 1392 807" version="1.1"><path d="M 72.667 85.667 C 72.300 86.033, 72 94.568, 72 104.631 C 72 121.699, 72.130 122.999, 73.934 123.965 C 74.998 124.534, 77.139 125, 78.692 125 C 82.216 125, 90.475 129.255, 94.669 133.231 C 99.038 137.373, 102.887 145.185, 103.616 151.392 C 104.245 156.741, 102.497 168, 101.038 168 C 100.586 168, 99.947 169.077, 99.616 170.392 C 98.692 174.077, 88.572 182.771, 83.695 184.070 C 81.388 184.684, 78.719 185.595, 77.764 186.094 C 76.809 186.592, 75.121 187, 74.014 187 C 72.147 187, 72 187.647, 72 195.870 L 72 204.740 77.816 205.884 C 88.360 207.958, 95.508 213.200, 100.760 222.706 C 103.084 226.914, 103.404 228.601, 103.373 236.500 C 103.342 244.170, 102.968 246.177, 100.838 250.081 C 97.544 256.118, 91.085 262.478, 86.601 264.099 C 84.621 264.816, 83 265.761, 83 266.201 C 83 266.640, 81.931 267, 80.625 267 C 79.319 267, 76.844 267.281, 75.125 267.625 L 72 268.250 72 277.011 L 72 285.773 76.413 286.435 C 86.196 287.902, 96.215 295.421, 101.151 305 C 104.693 311.876, 104.495 323.685, 100.711 331.168 C 99.177 334.202, 96.477 338.054, 94.711 339.729 C 90.798 343.440, 82.314 348, 79.323 348 C 78.117 348, 75.976 348.439, 74.565 348.975 C 72.089 349.917, 72 350.245, 72 358.475 C 72 366.352, 72.153 367, 74.014 367 C 75.121 367, 76.809 367.406, 77.764 367.903 C 78.719 368.399, 81.479 369.393, 83.898 370.111 C 88.754 371.554, 98.468 379.724, 99.585 383.305 C 99.961 384.512, 100.672 385.759, 101.163 386.077 C 101.655 386.394, 102.574 389.431, 103.205 392.827 C 104.429 399.406, 103.076 411.141, 101.015 411.828 C 100.457 412.014, 100 412.851, 100 413.687 C 100 414.524, 97.314 417.836, 94.031 421.048 C 88.099 426.853, 83.737 428.982, 77.750 428.994 C 76.237 428.997, 75 429.450, 75 430 C 75 430.550, 74.307 431, 73.461 431 C 72.172 431, 71.969 432.407, 72.211 439.665 L 72.500 448.330 78.882 449.629 C 82.391 450.343, 86.027 451.619, 86.960 452.464 C 87.894 453.309, 89.093 454, 89.626 454 C 91.336 454, 97.817 461.345, 100.655 466.500 C 103.088 470.919, 103.410 472.560, 103.421 480.622 C 103.433 488.885, 103.179 490.132, 100.717 493.851 C 99.223 496.109, 98 498.192, 98 498.479 C 98 500.448, 86.509 508.953, 83.809 508.982 C 82.879 508.992, 81.840 509.450, 81.500 510 C 81.160 510.550, 78.884 511, 76.441 511 L 72 511 72 520.500 L 72 530 75.099 530 C 77.864 530, 80.715 530.956, 87.599 534.190 C 90.224 535.424, 96.806 541.679, 99.640 545.634 C 102.431 549.530, 104.381 559.132, 103.645 565.352 C 102.989 570.885, 99.116 579.087, 95.179 583.280 C 91.244 587.470, 81.458 592, 76.340 592 L 72 592 72 601.500 C 72 610.980, 72.005 611, 74.514 611 C 75.896 611, 77.809 611.408, 78.764 611.906 C 79.719 612.405, 82.377 613.312, 84.672 613.923 C 87.864 614.773, 90.368 616.680, 95.336 622.046 C 101.389 628.583, 101.912 629.522, 103.052 635.902 C 104.022 641.330, 104.016 644.115, 103.024 649.372 C 102.336 653.018, 101.374 656, 100.887 656 C 100.399 656, 100 656.696, 100 657.548 C 100 659.514, 90.583 669, 88.631 669 C 87.826 669, 87.017 669.450, 86.833 670 C 86.650 670.551, 83.800 671.509, 80.500 672.131 C 77.200 672.752, 73.937 673.413, 73.250 673.599 C 72.297 673.857, 72 679.291, 72 696.469 L 72 719 538 719 L 1004 719 1004 705.223 C 1004 689.733, 1004.890 687, 1009.934 687 C 1014.815 687, 1015.468 688.948, 1015.844 704.652 L 1016.188 719 1170.594 719 L 1325 719 1325 696.500 L 1325 674 1321.700 674 C 1319.885 674, 1317.972 673.626, 1317.450 673.169 C 1316.927 672.711, 1314.652 671.813, 1312.394 671.172 C 1306.979 669.634, 1300.215 663.540, 1296.525 656.875 C 1293.801 651.954, 1293.549 650.683, 1293.547 641.831 C 1293.545 634.642, 1293.934 631.692, 1295.065 630.331 C 1295.902 629.324, 1297.156 627.375, 1297.852 626 C 1300.829 620.118, 1308.418 614.293, 1314.362 613.329 C 1316.363 613.004, 1318 612.347, 1318 611.869 C 1318 611.391, 1319.575 611, 1321.500 611 L 1325 611 1325 601.639 L 1325 592.278 1318.856 591.721 C 1314.898 591.362, 1311.711 590.423, 1309.897 589.082 C 1308.348 587.937, 1306.701 587, 1306.237 587 C 1304.690 587, 1299.137 580.565, 1296.314 575.500 C 1293.810 571.009, 1293.525 569.526, 1293.513 560.927 C 1293.501 551.904, 1293.673 551.105, 1296.500 547.040 C 1298.150 544.668, 1300.087 541.663, 1300.805 540.363 C 1301.522 539.064, 1302.774 538, 1303.586 538 C 1304.398 538, 1305.317 537.339, 1305.627 536.530 C 1305.937 535.722, 1307.723 534.506, 1309.595 533.829 C 1311.468 533.152, 1313 532.261, 1313 531.849 C 1313 531.437, 1315.700 530.794, 1319 530.420 L 1325 529.742 1325 520.510 L 1325 511.278 1319.078 510.741 C 1310.188 509.935, 1300.866 502.947, 1296 493.443 C 1293.857 489.256, 1293.509 487.270, 1293.565 479.529 C 1293.618 472.110, 1294.038 469.742, 1295.916 466.250 C 1297.173 463.912, 1298.618 462, 1299.126 462 C 1299.634 462, 1300.477 460.875, 1301 459.500 C 1301.523 458.125, 1302.588 457, 1303.368 457 C 1304.148 457, 1305.004 456.432, 1305.270 455.739 C 1306.067 453.662, 1314.524 449.962, 1319.940 449.321 L 1325 448.721 1325 439.906 L 1325 431.091 1321.250 430.457 C 1319.188 430.109, 1316.082 429.189, 1314.349 428.412 C 1312.616 427.635, 1310.684 427, 1310.056 427 C 1307.879 427, 1298.926 417.645, 1296.260 412.585 C 1293.976 408.251, 1293.576 406.245, 1293.546 399 C 1293.519 392.661, 1293.994 389.483, 1295.412 386.500 C 1297.497 382.112, 1305.728 373, 1307.605 373 C 1308.255 373, 1309.033 372.357, 1309.335 371.570 C 1309.637 370.783, 1311.939 369.832, 1314.454 369.455 C 1316.968 369.078, 1319.271 368.371, 1319.571 367.885 C 1319.872 367.398, 1321.216 367, 1322.559 367 C 1324.950 367, 1325 366.832, 1324.992 358.750 C 1324.985 350.773, 1324.895 350.459, 1322.293 349.250 C 1320.812 348.563, 1318.558 348, 1317.282 348 C 1311.999 348, 1301.098 340.221, 1297.426 333.832 C 1293.172 326.429, 1291.982 317.912, 1294.017 309.429 C 1296.504 299.062, 1309.022 288.289, 1320.750 286.421 L 1325 285.744 1325 276.966 L 1325 268.188 1319.750 267.472 C 1313.334 266.597, 1308.120 263.819, 1302.649 258.362 C 1294.780 250.514, 1293.595 247.651, 1293.595 236.500 C 1293.595 225.442, 1294.780 222.531, 1302.509 214.609 C 1307.357 209.639, 1313.854 206.297, 1320.250 205.482 L 1325 204.877 1325 196.067 L 1325 187.256 1320.750 186.579 C 1309.241 184.746, 1297.436 174.748, 1294.384 164.249 C 1292.294 157.060, 1292.960 148.055, 1296.029 142 C 1298.588 136.952, 1305.732 129, 1307.708 129 C 1308.419 129, 1309 128.582, 1309 128.072 C 1309 127.561, 1311.588 126.615, 1314.750 125.969 C 1325.755 123.722, 1325 125.316, 1325 104.331 L 1325 86 1170.500 86 L 1016 86 1016 98.365 C 1016 109.360, 1015.770 111.022, 1013.927 113.365 C 1011.081 116.983, 1006.338 117.020, 1004.975 113.435 C 1004.439 112.024, 1004 105.349, 1004 98.601 L 1004 86.331 841.250 85.666 C 630.112 84.803, 73.530 84.803, 72.667 85.667 M 1006.273 134.937 C 1004.485 136.857, 1004.264 139.131, 1003.662 161.767 C 1002.155 218.437, 1002.769 227.021, 1008.323 226.986 C 1012.425 226.961, 1015 225.787, 1015 223.942 C 1015 222.939, 1015.450 221.840, 1016 221.500 C 1018.113 220.194, 1016.652 137.227, 1014.479 135.100 C 1012.214 132.883, 1008.260 132.804, 1006.273 134.937 M 1005.687 245.805 L 1003 248.609 1003 290.400 C 1003 331.047, 1003.057 332.271, 1005.068 335.096 C 1007.303 338.234, 1010.363 338.799, 1013.250 336.608 C 1014.212 335.877, 1015 334.568, 1015 333.699 C 1015 332.829, 1015.450 331.840, 1016 331.500 C 1017.267 330.717, 1017.383 249, 1016.117 249 C 1015.631 249, 1014.998 248.100, 1014.710 247 C 1014.423 245.900, 1013.470 245, 1012.594 245 C 1011.717 245, 1011 244.550, 1011 244 C 1011 242.110, 1008.371 243.003, 1005.687 245.805 M 1008 354.654 C 1007.175 354.873, 1005.712 356.428, 1004.750 358.108 C 1003.163 360.878, 1003 364.910, 1003 401.427 C 1003 447.747, 1003.039 448, 1010.105 448 C 1013.001 448, 1014.208 447.531, 1014.604 446.250 C 1014.902 445.288, 1015.563 443.719, 1016.073 442.764 C 1017.371 440.332, 1017.300 361, 1016 361 C 1015.450 361, 1014.993 360.212, 1014.985 359.250 C 1014.955 355.846, 1011.662 353.680, 1008 354.654 M 1007.763 465.687 C 1006.808 465.937, 1005.275 467.726, 1004.356 469.662 C 1002.844 472.849, 1002.752 477.004, 1003.386 513.638 C 1003.839 539.845, 1004.480 554.958, 1005.203 556.547 C 1006.092 558.498, 1007.067 559, 1009.968 559 C 1013.236 559, 1013.791 558.601, 1015.308 555.164 C 1016.804 551.771, 1017 546.751, 1017 511.723 C 1017 486.398, 1016.639 471.895, 1016 471.500 C 1015.450 471.160, 1015 469.997, 1015 468.916 C 1015 467.726, 1013.988 466.566, 1012.435 465.975 C 1011.024 465.439, 1009.787 465.052, 1009.685 465.116 C 1009.583 465.180, 1008.719 465.437, 1007.763 465.687 M 1004.975 579.565 C 1004.398 581.083, 1004 599.160, 1004 623.843 C 1004 669.785, 1004.028 670, 1009.934 670 C 1014.498 670, 1015.252 668.010, 1016.106 653.706 C 1017.213 635.162, 1017.189 584.327, 1016.073 582.236 C 1015.563 581.281, 1014.902 579.712, 1014.604 578.750 C 1014.205 577.460, 1012.997 577, 1010.007 577 C 1006.573 577, 1005.801 577.394, 1004.975 579.565" stroke="none" fill="#000000" fill-rule="evenodd"/></svg>